<svg width="34" height="34" viewBox="0 0 34 34" fill="none" xmlns="http://www.w3.org/2000/svg" xmlns:xlink="http://www.w3.org/1999/xlink">
<path d="M24.561,22.439C23.975,21.854 23.025,21.854 22.439,22.439C21.854,23.025 21.854,23.975 22.439,24.561L24.561,22.439ZM31.439,33.561C32.025,34.146 32.975,34.146 33.561,33.561C34.146,32.975 34.146,32.025 33.561,31.439L31.439,33.561ZM25,14.5C25,20.299 20.299,25 14.5,25L14.5,28C21.956,28 28,21.956 28,14.5L25,14.5ZM14.5,25C8.701,25 4,20.299 4,14.5L1,14.5C1,21.956 7.044,28 14.5,28L14.5,25ZM4,14.5C4,8.701 8.701,4 14.5,4L14.5,1C7.044,1 1,7.044 1,14.5L4,14.5ZM14.5,4C20.299,4 25,8.701 25,14.5L28,14.5C28,7.044 21.956,1 14.5,1L14.5,4ZM22.439,24.561L31.439,33.561L33.561,31.439L24.561,22.439L22.439,24.561Z" fill="#0C2340"/>
</svg>
