<svg width="66" height="68" viewBox="0 0 66 68" fill="none" xmlns="http://www.w3.org/2000/svg" xmlns:xlink="http://www.w3.org/1999/xlink">
<path d="M18.25,1C19.769,1 21,2.231 21,3.75L21,6.5L43,6.5L43,3.75C43,2.231 44.231,1 45.75,1C47.269,1 48.5,2.231 48.5,3.75L48.5,6.5L56.75,6.5C61.306,6.5 65,10.194 65,14.75L65,58.75C65,63.306 61.306,67 56.75,67L7.25,67C2.694,67 -1,63.306 -1,58.75L-1,14.75C-1,10.194 2.694,6.5 7.25,6.5L15.5,6.5L15.5,3.75C15.5,2.231 16.731,1 18.25,1ZM4.5,23L59.5,23L59.5,14.75C59.5,13.231 58.269,12 56.75,12L48.5,12L48.5,14.75C48.5,16.269 47.269,17.5 45.75,17.5C44.231,17.5 43,16.269 43,14.75L43,12L21,12L21,14.75C21,16.269 19.769,17.5 18.25,17.5C16.731,17.5 15.5,16.269 15.5,14.75L15.5,12L7.25,12C5.731,12 4.5,13.231 4.5,14.75L4.5,23Z" clip-rule="evenodd" fill-rule="evenodd" fill="#FFFFFF"/>
</svg>
